<?xml version="1.0" standalone="no"?>
<!DOCTYPE svg PUBLIC "-//W3C//DTD SVG 20010904//EN"
 "http://www.w3.org/TR/2001/REC-SVG-20010904/DTD/svg10.dtd">
<svg version="1.0" xmlns="http://www.w3.org/2000/svg"
 width="700.000000pt" height="700.000000pt" viewBox="0 0 700.000000 700.000000"
 preserveAspectRatio="xMidYMid meet">
<metadata>
Created by potrace 1.11, written by Peter Selinger 2001-2013
</metadata>
<g transform="translate(0.000000,700.000000) scale(0.100000,-0.100000)"
fill="#000000" stroke="none">
<path d="M2160 5795 l-155 -155 635 -635 635 -635 157 157 158 158 -632 632
c-348 348 -635 633 -638 633 -3 0 -75 -70 -160 -155z"/>
<path d="M5367 5423 l-388 -237 153 -153 c118 -118 155 -150 164 -140 18 20
466 759 462 763 -2 2 -178 -103 -391 -233z"/>
<path d="M4115 5534 c-223 -35 -414 -188 -556 -448 -34 -64 -39 -78 -23 -72
61 24 215 56 274 56 183 0 275 -88 287 -272 l5 -83 323 -325 c354 -356 345
-343 345 -466 0 -119 -55 -209 -169 -279 -62 -37 -232 -96 -340 -117 l-65 -13
80 -51 c196 -127 404 -231 575 -288 368 -122 698 -105 977 50 297 166 509 433
578 730 27 111 24 333 -4 464 -53 245 -166 496 -345 774 l-71 108 -27 -108
c-82 -333 -223 -509 -425 -530 -34 -4 -84 -1 -115 5 -54 12 -56 14 -429 385
-414 411 -393 395 -582 450 -86 25 -230 39 -293 30z"/>
<path d="M1982 5282 l-70 -209 402 -401 401 -400 204 69 c112 37 205 70 207
72 2 1 -239 245 -535 541 l-538 538 -71 -210z"/>
<path d="M1612 4777 l-242 -242 400 -400 400 -400 240 240 c132 132 240 244
240 250 0 10 -780 795 -790 795 -3 0 -114 -109 -248 -243z"/>
<path d="M1097 4412 l-197 -67 538 -538 539 -539 71 209 72 208 -398 398
c-218 218 -404 397 -412 396 -8 0 -104 -31 -213 -67z"/>
<path d="M3782 3967 l-462 -462 140 -140 140 -140 463 463 462 462 -140 140
-140 140 -463 -463z"/>
<path d="M590 4235 l-155 -155 638 -638 637 -637 155 155 155 155 -638 638
-637 637 -155 -155z"/>
<path d="M2485 3910 l-170 -170 948 -948 947 -947 170 170 170 170 -948 948
-947 947 -170 -170z"/>
<path d="M2059 2203 c-553 -554 -859 -867 -863 -884 -25 -109 150 -279 261
-253 20 4 288 266 886 863 l857 856 -137 137 c-76 76 -140 138 -143 138 -3 0
-390 -386 -861 -857z"/>
<path d="M4446 1951 l-169 -169 269 -397 c152 -225 278 -402 290 -407 30 -14
139 6 211 37 207 92 373 316 373 503 l0 60 -392 264 c-216 146 -398 268 -404
271 -6 3 -86 -70 -178 -162z"/>
</g>
</svg>
